<?xml version="1.0" encoding="UTF-8" standalone="no"?><!DOCTYPE svg PUBLIC "-//W3C//DTD SVG 1.1//EN" "http://www.w3.org/Graphics/SVG/1.1/DTD/svg11.dtd"><svg width="100%" height="100%" viewBox="0 0 338 215" version="1.1" xmlns="http://www.w3.org/2000/svg" xmlns:xlink="http://www.w3.org/1999/xlink" xml:space="preserve" xmlns:serif="http://www.serif.com/" style="fill-rule:evenodd;clip-rule:evenodd;stroke-linejoin:round;stroke-miterlimit:2;"><rect id="Artboard1" x="0" y="0" width="337.6" height="214.84" style="fill:none;"/><path d="M157.209,49.773c1.834,0.001 3.668,0 5.502,-0.001c4.954,-0.001 9.908,0.011 14.861,0.025c5.186,0.013 10.373,0.014 15.559,0.016c9.81,0.006 19.62,0.023 29.43,0.043c11.173,0.022 22.346,0.033 33.519,0.043c22.973,0.021 45.947,0.056 68.92,0.101c0.018,1.603 0.031,3.206 0.042,4.808c0.008,0.893 0.015,1.785 0.023,2.705c-0.241,9.23 -5.943,18.112 -12.1,24.647c-8.607,8.122 -18.611,12.902 -30.527,12.965c-1.134,-0.041 -2.269,-0.082 -3.438,-0.125c0.093,1.423 0.093,1.423 0.188,2.875c-0.065,10.751 -5.659,20.501 -12.688,28.312c-7.269,6.931 -17.671,12.008 -27.75,11.875c-1.338,-0.014 -1.338,-0.014 -2.703,-0.027c-0.675,-0.012 -1.351,-0.023 -2.047,-0.035c-0.014,0.655 -0.028,1.31 -0.043,1.984c-0.602,11.519 -4.796,21.759 -12.957,30.016c-10.091,8.562 -20.683,12.174 -33.821,12.12c-1.153,0.001 -1.153,0.001 -2.33,0.003c-2.566,0.002 -5.131,-0.004 -7.697,-0.009c-1.843,-0 -3.686,-0 -5.53,0c-4.997,0 -9.995,-0.006 -14.992,-0.013c-5.225,-0.006 -10.45,-0.007 -15.675,-0.008c-9.891,-0.003 -19.783,-0.011 -29.674,-0.021c-11.262,-0.011 -22.525,-0.017 -33.787,-0.022c-23.165,-0.01 -46.33,-0.028 -69.494,-0.05c-0.111,-12.252 3.877,-23.146 12.141,-32.305c9.684,-8.83 20.23,-11.906 32.859,-13.695c0.075,-0.727 0.15,-1.454 0.227,-2.203c1.504,-11.499 5.979,-21.98 14.773,-29.797c10.15,-7.745 19.316,-10.651 32,-10c-0.082,-1.258 -0.165,-2.516 -0.25,-3.812c0.033,-10.41 5.28,-19.913 12.285,-27.348c13.336,-12.583 27.736,-13.142 45.174,-13.067Z" style="fill:#16274f;fill-rule:nonzero;"/><path d="M54.821,136.918c1.153,0.005 1.153,0.005 2.33,0.01c2.566,0.012 5.131,0.031 7.697,0.051c1.843,0.01 3.686,0.02 5.53,0.029c4.997,0.026 9.995,0.059 14.992,0.093c5.225,0.034 10.45,0.063 15.675,0.092c9.892,0.056 19.783,0.117 29.674,0.181c11.262,0.072 22.525,0.138 33.787,0.203c23.165,0.135 46.33,0.277 69.494,0.424c-0.143,1.763 -0.291,3.526 -0.441,5.289c-0.123,1.473 -0.123,1.473 -0.248,2.975c-1.135,9.987 -7.074,19.293 -14.631,25.705c-9.784,7.238 -19.386,10.201 -31.5,10.152c-1.153,0.001 -1.153,0.001 -2.33,0.003c-2.566,0.002 -5.131,-0.004 -7.697,-0.009c-1.843,-0 -3.686,-0 -5.53,0c-4.997,0 -9.995,-0.006 -14.992,-0.013c-5.225,-0.006 -10.45,-0.007 -15.675,-0.008c-9.891,-0.003 -19.783,-0.011 -29.674,-0.021c-11.262,-0.011 -22.525,-0.017 -33.787,-0.022c-23.165,-0.01 -46.33,-0.028 -69.494,-0.05c-0.111,-12.252 3.877,-23.146 12.141,-32.305c9.972,-9.092 21.37,-12.905 34.68,-12.778Z" style="fill:#34a4dc;fill-rule:nonzero;"/><path d="M107.577,93.659c1.873,0.001 3.747,0 5.62,-0.001c5.061,-0.001 10.122,0.017 15.184,0.038c5.298,0.019 10.597,0.021 15.895,0.024c10.022,0.009 20.045,0.034 30.067,0.064c11.415,0.034 22.83,0.05 34.244,0.065c23.471,0.031 46.942,0.084 70.413,0.151c0.092,12.677 -3.932,22.665 -12.5,32.187c-8.249,7.865 -18.978,11.978 -30.232,11.933c-0.783,0.001 -1.567,0.002 -2.374,0.003c-2.627,0.002 -5.254,-0.004 -7.881,-0.009c-1.882,-0 -3.765,-0 -5.647,0c-5.113,0 -10.226,-0.006 -15.34,-0.013c-5.342,-0.006 -10.685,-0.007 -16.027,-0.008c-10.118,-0.003 -20.236,-0.011 -30.355,-0.021c-11.519,-0.011 -23.037,-0.017 -34.556,-0.022c-23.696,-0.01 -47.392,-0.028 -71.088,-0.05c0.266,-2.202 0.546,-4.402 0.832,-6.602c0.232,-1.838 0.232,-1.838 0.468,-3.713c1.957,-10.304 7.964,-19.308 16.239,-25.623c11.918,-8.057 23.073,-8.492 37.038,-8.403Z" style="fill:#23447a;fill-rule:nonzero;"/></svg>